# Made in Blockbench 4.11.1
mtllib greek_pillar.mtl

o greek_pillar
v 0 0.125 0
v 0 2.875 0
v 0.100480947161671 0.125 0.375
v 0.100480947161671 2.875 0.375
v 0.27451905283832895 0.125 0.274519052838329
v 0.27451905283832895 2.875 0.274519052838329
v 0.375 0.125 0.100480947161671
v 0.375 2.875 0.100480947161671
v 0.375 0.125 -0.10048094716167104
v 0.375 2.875 -0.10048094716167104
v 0.274519052838329 0.125 -0.27451905283832895
v 0.274519052838329 2.875 -0.27451905283832895
v 0.10048094716167111 0.125 -0.37499999999999994
v 0.10048094716167111 2.875 -0.37499999999999994
v -0.10048094716167086 0.125 -0.375
v -0.10048094716167086 2.875 -0.375
v -0.27451905283832895 0.125 -0.274519052838329
v -0.27451905283832895 2.875 -0.274519052838329
v -0.375 0.125 -0.10048094716167096
v -0.375 2.875 -0.10048094716167096
v -0.375 0.125 0.10048094716167083
v -0.375 2.875 0.10048094716167083
v -0.274519052838329 0.125 0.2745190528383289
v -0.274519052838329 2.875 0.2745190528383289
v -0.10048094716167097 0.125 0.375
v -0.10048094716167097 2.875 0.375
v 0.5 0.125 0.5
v 0.5 0.125 -0.5
v 0.5 0 0.5
v 0.5 0 -0.5
v -0.5 0.125 0.5
v -0.5 0.125 -0.5
v -0.5 0 0.5
v -0.5 0 -0.5
v 0.5 3 0.5
v 0.5 3 -0.5
v 0.5 2.875 0.5
v 0.5 2.875 -0.5
v -0.5 3 0.5
v -0.5 3 -0.5
v -0.5 2.875 0.5
v -0.5 2.875 -0.5
vt 0.3882281393757091 0.8058859303121437
vt 0.3362160162020561 0.9999999999999983
vt 0 0.8058859303121437
vt 1.4155343563970746e-15 0
vt 0.2009625000000014 0
vt 0.2009625000000014 2.75
vt 1.4155343563970746e-15 2.75
vt 0 0.6117713539657815
vt 0.19411381635893044 0.6637844225772749
vt 6.938893903907228e-17 1
vt 0.38822864603421847 0.8058861836410696
vt 0.33621557742272506 1
vt 0 0.8058861836410696
vt 1.4155343563970746e-15 0
vt 0.2009625000000014 0
vt 0.2009625000000014 2.75
vt 1.4155343563970746e-15 2.75
vt 2.7755575615628914e-17 0.6117718606242909
vt 0.19411406968785458 0.6637839837979439
vt 0 1
vt 0.375 0.7990374999999986
vt 0.375 0.9999999999999986
vt 0 0.8995187499999986
vt 1.4155343563970746e-15 0
vt 0.2009625000000014 0
vt 0.2009625000000014 2.75
vt 1.4155343563970746e-15 2.75
vt 0.375 0.7990374999999986
vt 0.375 0.9999999999999986
vt 0 0.8995187499999986
vt 2.7755575615628914e-17 0.6117718606242909
vt 0.19411406968785458 0.6637839837979439
vt 0 1
vt 1.4155343563970746e-15 0
vt 0.2009625000000014 0
vt 0.2009625000000014 2.75
vt 1.4155343563970746e-15 2.75
vt 0.38822864603421847 0.8058861836410696
vt 0.33621557742272506 1
vt 0 0.8058861836410696
vt 0 0.6117713539657815
vt 0.19411381635893044 0.6637844225772749
vt 6.938893903907228e-17 1
vt 1.4155343563970746e-15 0
vt 0.2009625000000014 0
vt 0.2009625000000014 2.75
vt 1.4155343563970746e-15 2.75
vt 0.3882281393757091 0.8058859303121437
vt 0.3362160162020561 0.9999999999999983
vt 0 0.8058859303121437
vt 1.4155343563970746e-15 0.625
vt 0.2009625000000014 0.625
vt 0.10048125000000141 1
vt 1.4155343563970746e-15 0
vt 0.2009625000000014 0
vt 0.2009625000000014 2.75
vt 1.4155343563970746e-15 2.75
vt 0.2009625000000014 1
vt 1.4155343563970746e-15 1
vt 0.10048125000000141 0.625
vt 3.4416913763379853e-15 1
vt 0.052012123173656444 0.8058859303121454
vt 0.38822813937571254 1
vt 1.4155343563970746e-15 0
vt 0.2009625000000014 0
vt 0.2009625000000014 2.75
vt 1.4155343563970746e-15 2.75
vt 0.19411381635893044 0.999999999999997
vt 0 0.9479869313885035
vt 0.19411381635893055 0.6117713539657785
vt 2.9976021664879227e-15 1
vt 0.052013068611496405 0.8058861836410696
vt 0.38822864603422147 0.9999999999999999
vt 1.4155343563970746e-15 0
vt 0.2009625000000014 0
vt 0.2009625000000014 2.75
vt 1.4155343563970746e-15 2.75
vt 0.19411406968785624 0.9999999999999966
vt 1.6930901125533637e-15 0.9479878768263436
vt 0.19411406968785627 0.6117718606242875
vt 0 0.9999999999999986
vt 0 0.7990374999999986
vt 0.375 0.8995187499999986
vt 1.4155343563970746e-15 0
vt 0.2009625000000014 0
vt 0.2009625000000014 2.75
vt 1.4155343563970746e-15 2.75
vt 0 0.9999999999999986
vt 0 0.7990374999999986
vt 0.375 0.8995187499999986
vt 0.19411406968785624 0.9999999999999966
vt 1.6930901125533637e-15 0.9479878768263436
vt 0.19411406968785627 0.6117718606242875
vt 1.4155343563970746e-15 0
vt 0.2009625000000014 0
vt 0.2009625000000014 2.75
vt 1.4155343563970746e-15 2.75
vt 2.9976021664879227e-15 1
vt 0.052013068611496405 0.8058861836410696
vt 0.38822864603422147 0.9999999999999999
vt 0.19411381635893044 0.999999999999997
vt 0 0.9479869313885035
vt 0.19411381635893055 0.6117713539657785
vt 1.4155343563970746e-15 0
vt 0.2009625000000014 0
vt 0.2009625000000014 2.75
vt 1.4155343563970746e-15 2.75
vt 3.4416913763379853e-15 1
vt 0.052012123173656444 0.8058859303121454
vt 0.38822813937571254 1
vt 0.2009625000000014 1
vt 1.4155343563970746e-15 1
vt 0.10048125000000141 0.625
vt 1.4155343563970746e-15 0
vt 0.2009625000000014 0
vt 0.2009625000000014 2.75
vt 1.4155343563970746e-15 2.75
vt 1.4155343563970746e-15 0.625
vt 0.2009625000000014 0.625
vt 0.10048125000000141 1
vt 1 1
vt 0 1
vt 0 0.875
vt 1 0.875
vt 1 0.875
vt 1 1
vt 0 1
vt 0 0.875
vt 0 0
vt 1 0
vt 1 1
vt 0 1
vt 1 0
vt 1 1
vt 0 1
vt 0 0
vt 1 0.875
vt 1 1
vt 0 1
vt 0 0.875
vt 1 1
vt 0 1
vt 0 0.875
vt 1 0.875
vt 1 1
vt 0 1
vt 0 0.875
vt 1 0.875
vt 1 0.875
vt 1 1
vt 0 1
vt 0 0.875
vt 0 0
vt 1 0
vt 1 1
vt 0 1
vt 1 0
vt 1 1
vt 0 1
vt 0 0
vt 1 0.875
vt 1 1
vt 0 1
vt 0 0.875
vt 1 1
vt 0 1
vt 0 0.875
vt 1 0.875
vn 0 -1 0
vn 0.5 0 0.8660254037844387
vn 0 1 0
vn 0 -1 0
vn 0.8660254037844386 0 0.5000000000000001
vn 0 1 0
vn 0 -1 0
vn 1 0 0
vn 0 1 0
vn 0 -1 0
vn 0.8660254037844386 0 -0.5000000000000001
vn 0 1 0
vn 0 -1 0
vn 0.5000000000000001 0 -0.8660254037844386
vn 0 1 0
vn 0 -1 0
vn 2.7622724904225857e-16 0 -1
vn 0 1 0
vn 0 -1 0
vn -0.4999999999999997 0 -0.8660254037844388
vn 0 1 0
vn 0 -1 0
vn -0.8660254037844387 0 -0.5
vn 0 1 0
vn 0 -1 0
vn -1 0 0
vn 0 1 0
vn 0 -1 0
vn -0.8660254037844389 0 0.49999999999999983
vn 0 1 0
vn 0 -1 0
vn -0.5000000000000003 0 0.8660254037844386
vn 0 1 0
vn 0 -1 0
vn 0 0 1
vn 0 1 0
vn 1 0 0
vn -1 0 0
vn 0 1 0
vn 0 -1 0
vn 0 0 1
vn 0 0 -1
vn 1 0 0
vn -1 0 0
vn 0 1 0
vn 0 -1 0
vn 0 0 1
vn 0 0 -1
usemtl none
f 5/1/1 3/2/1 1/3/1
f 3/4/2 5/5/2 6/6/2 4/7/2
f 4/8/3 6/9/3 2/10/3
f 7/11/4 5/12/4 1/13/4
f 5/14/5 7/15/5 8/16/5 6/17/5
f 6/18/6 8/19/6 2/20/6
f 9/21/7 7/22/7 1/23/7
f 7/24/8 9/25/8 10/26/8 8/27/8
f 8/28/9 10/29/9 2/30/9
f 11/31/10 9/32/10 1/33/10
f 9/34/11 11/35/11 12/36/11 10/37/11
f 10/38/12 12/39/12 2/40/12
f 13/41/13 11/42/13 1/43/13
f 11/44/14 13/45/14 14/46/14 12/47/14
f 12/48/15 14/49/15 2/50/15
f 15/51/16 13/52/16 1/53/16
f 13/54/17 15/55/17 16/56/17 14/57/17
f 14/58/18 16/59/18 2/60/18
f 17/61/19 15/62/19 1/63/19
f 15/64/20 17/65/20 18/66/20 16/67/20
f 16/68/21 18/69/21 2/70/21
f 19/71/22 17/72/22 1/73/22
f 17/74/23 19/75/23 20/76/23 18/77/23
f 18/78/24 20/79/24 2/80/24
f 21/81/25 19/82/25 1/83/25
f 19/84/26 21/85/26 22/86/26 20/87/26
f 20/88/27 22/89/27 2/90/27
f 23/91/28 21/92/28 1/93/28
f 21/94/29 23/95/29 24/96/29 22/97/29
f 22/98/30 24/99/30 2/100/30
f 25/101/31 23/102/31 1/103/31
f 23/104/32 25/105/32 26/106/32 24/107/32
f 24/108/33 26/109/33 2/110/33
f 3/111/34 25/112/34 1/113/34
f 25/114/35 3/115/35 4/116/35 26/117/35
f 26/118/36 4/119/36 2/120/36
f 28/121/37 27/122/37 29/123/37 30/124/37
f 33/125/38 31/126/38 32/127/38 34/128/38
f 31/129/39 27/130/39 28/131/39 32/132/39
f 30/133/40 29/134/40 33/135/40 34/136/40
f 29/137/41 27/138/41 31/139/41 33/140/41
f 32/141/42 28/142/42 30/143/42 34/144/42
f 36/145/43 35/146/43 37/147/43 38/148/43
f 41/149/44 39/150/44 40/151/44 42/152/44
f 39/153/45 35/154/45 36/155/45 40/156/45
f 38/157/46 37/158/46 41/159/46 42/160/46
f 37/161/47 35/162/47 39/163/47 41/164/47
f 40/165/48 36/166/48 38/167/48 42/168/48