# Made in Blockbench 4.11.1
mtllib small_slope.mtl

o small_slope
v -0.5 1 0.5
v -0.5 1 -0.5
v 1.5 0 0.5
v 1.5 0 -0.5
v -0.5 0 0.5
v -0.5 0 -0.5
vt 1 1
vt 0 1
vt 0 -1.2360687500000003
vt 1 -1.2360687500000003
vt 1 0
vt 1 1
vt 0 1
vt 0 0
vt 2 0
vt 2 1
vt 0 1
vt 0 0
vt 0 0
vt 2 1
vt 2 0
vt 2 1
vt 0 0
vt 2 0
vn 0.44721359549995804 0.8944271909999161 0
vn -1 0 0
vn 0 -1 0
vn 0 0 1
vn 0 0 -1
usemtl none
f 2/1/1 1/2/1 3/3/1 4/4/1
f 5/5/2 1/6/2 2/7/2 6/8/2
f 4/9/3 3/10/3 5/11/3 6/12/3
f 3/13/4 1/14/4 5/15/4
f 2/16/5 4/17/5 6/18/5