# Created by Kenney (www.kenney.nl)

mtllib beam.mtl

v 12 2 -2
v 12 -2 -2
v 12 2 2
v 12 -2 2
v -12 2 -2
v -12 2 2
v -12 -2 2
v -12 -2 -2

vn 1 0 0
vn 0 1 0
vn 0 -1 0
vn -1 0 0
vn 0 0 -1
vn 0 0 1

vt 0.859375 0.6458333
vt 0.859375 0.6041667
vt 0.9010417 0.6458333
vt 0.9010417 0.6041667
vt 0.25 0.859375
vt 0.25 0.9010417
vt 0.5 0.859375
vt 0.5 0.9010417
vt 0.25 0.4010417
vt 0.25 0.359375
vt 0.5 0.4010417
vt 0.5 0.359375
vt 0.359375 0.6041667
vt 0.359375 0.6458333
vt 0.4010417 0.6041667
vt 0.4010417 0.6458333
vt 0.25 0.6041667
vt 0 0.6041667
vt 0.25 0.6458333
vt 0 0.6458333
vt 0.75 0.6041667
vt 0.5 0.6041667
vt 0.75 0.6458333
vt 0.5 0.6458333

usemtl beam

f 3/3/1 2/2/1 1/1/1
f 2/2/1 3/3/1 4/4/1
f 5/7/2 3/6/2 1/5/2
f 3/6/2 5/7/2 6/8/2
f 7/11/3 2/10/3 4/9/3
f 2/10/3 7/11/3 8/12/3
f 7/15/4 5/14/4 8/13/4
f 5/14/4 7/15/4 6/16/4
f 5/19/5 2/18/5 8/17/5
f 2/18/5 5/19/5 1/20/5
f 3/23/6 7/22/6 4/21/6
f 7/22/6 3/23/6 6/24/6

