# Created by Kenney (www.kenney.nl)

mtllib slope.mtl

v 7 -4 -4
v 8 -4 -4
v 7 -3.5 -4
v 8 -4 4
v 7 -3.5 4
v 7 -4 4
v 6 -3 -4
v 6 -3 4
v 6 -4 -4
v 6 -4 4
v 5 -3 -4
v 5 -2.5 -4
v 5 -2.5 4
v 5 -3 4
v 4 -2 -4
v 4 -2 4
v 4 -3 -4
v 4 -3 4
v 3 -2 -4
v 3 -1.5 -4
v 3 -1.5 4
v 3 -2 4
v 2 -1 -4
v 2 -1 4
v 2 -2 -4
v 2 -2 4
v 0.9999999 -0.9999999 -4
v 1 -0.5 -4
v 1 -0.5 4
v 0.9999999 -0.9999999 4
v 0 -5.960464E-08 -4
v 0 -5.960464E-08 4
v 0 -1 -4
v 1 -0.5 -4
v 1 -1 -4
v 1 -0.5 4
v 1 -1 4
v 0 -1 4
v -1 5.960464E-08 -4
v -1 0.5000001 -4
v -1 0.5000001 4
v -5.960464E-08 0 4
v -5.960464E-08 0 -4
v -1 5.960464E-08 4
v -2 0.9999999 -4
v -2 0.9999999 4
v -2 -5.960464E-08 -4
v -1 0.5 -4
v -1 -5.960464E-08 -4
v -1 0.5 4
v -1 -5.960464E-08 4
v -2 -5.960464E-08 4
v -3 1 -4
v -3 1.5 -4
v -3 1.5 4
v -2 1 4
v -2 1 -4
v -3 1 4
v -4 2 -4
v -4 2 4
v -4 0.9999999 -4
v -3 0.9999999 -4
v -3 0.9999999 4
v -4 0.9999999 4
v -5 2 -4
v -5 2.5 -4
v -5 2.5 4
v -5 2 4
v -6 3 -4
v -6 3 4
v -6 2 -4
v -6 2 4
v -7 3 -4
v -7 3.5 -4
v -7 3.5 4
v -7 3 4
v -8 4 -4
v -8 4 4
v -8 3 -4
v -8 3 4
v -6 -4 -4
v -6 -4 4
v -8 -4 4
v -8 -4 -4
v -4 -4 -4
v -4 -4 4
v -2 -4 -4
v -2 -4 4
v -4 1 -4
v -4 1 4
v 0 0 -4
v 0 -4 -4
v 0 0 4
v 0 -4 4
v -2 0 -4
v -2 0 4
v 2 -4 -4
v 2 -4 4
v 4 -4 -4
v 4 -4 4

vn 0 0 -1
vn 0.4472136 0.8944272 0
vn 0 -1 0
vn -1 0 0
vn 0 0 1
vn 0.4472136 0.8944272 0
vn 1 0 0
vn 0 1 0

vt 0.015625 0.5625
vt 0 0.5625
vt 0.015625 0.5703125
vt 0.25 0.8203125
vt 0.25 0.9453125
vt 0.265625 0.8203125
vt 0.265625 0.9453125
vt 0.25 0.4453125
vt 0.25 0.3203125
vt 0.265625 0.4453125
vt 0.265625 0.3203125
vt 0.3203125 0.5625
vt 0.3203125 0.5703125
vt 0.4453125 0.5625
vt 0.4453125 0.5703125
vt 0.75 0.5625
vt 0.734375 0.5625
vt 0.734375 0.5703125
vt 0.28125 0.8203125
vt 0.28125 0.9453125
vt 0.03125 0.5625
vt 0.03125 0.578125
vt 0.8203125 0.5703125
vt 0.8203125 0.5625
vt 0.9453125 0.5703125
vt 0.9453125 0.5625
vt 0.3203125 0.578125
vt 0.4453125 0.578125
vt 0.28125 0.4453125
vt 0.28125 0.3203125
vt 0.71875 0.5625
vt 0.71875 0.578125
vt 0.046875 0.578125
vt 0.046875 0.5859375
vt 0.296875 0.8203125
vt 0.296875 0.9453125
vt 0.296875 0.4453125
vt 0.296875 0.3203125
vt 0.3203125 0.5859375
vt 0.4453125 0.5859375
vt 0.703125 0.578125
vt 0.703125 0.5859375
vt 0.3125 0.8203125
vt 0.3125 0.9453125
vt 0.0625 0.578125
vt 0.0625 0.59375
vt 0.8203125 0.5859375
vt 0.8203125 0.578125
vt 0.9453125 0.5859375
vt 0.9453125 0.578125
vt 0.3203125 0.59375
vt 0.4453125 0.59375
vt 0.3125 0.4453125
vt 0.3125 0.3203125
vt 0.6875 0.578125
vt 0.6875 0.59375
vt 0.078125 0.59375
vt 0.078125 0.6015625
vt 0.328125 0.8203125
vt 0.328125 0.9453125
vt 0.328125 0.4453125
vt 0.328125 0.3203125
vt 0.3203125 0.6015625
vt 0.4453125 0.6015625
vt 0.671875 0.59375
vt 0.671875 0.6015625
vt 0.34375 0.8203125
vt 0.34375 0.9453125
vt 0.09375 0.59375
vt 0.09375 0.609375
vt 0.8203125 0.6015625
vt 0.8203125 0.59375
vt 0.9453125 0.6015625
vt 0.9453125 0.59375
vt 0.3203125 0.609375
vt 0.4453125 0.609375
vt 0.34375 0.4453125
vt 0.34375 0.3203125
vt 0.65625 0.59375
vt 0.65625 0.609375
vt 0.109375 0.609375
vt 0.109375 0.6171875
vt 0.359375 0.8203125
vt 0.359375 0.9453125
vt 0.359375 0.4453125
vt 0.359375 0.3203125
vt 0.3203125 0.6171875
vt 0.4453125 0.6171875
vt 0.640625 0.609375
vt 0.640625 0.6171875
vt 0.375 0.8203125
vt 0.375 0.9453125
vt 0.125 0.609375
vt 0.125 0.625
vt 0.8203125 0.6171875
vt 0.8203125 0.609375
vt 0.9453125 0.6171875
vt 0.9453125 0.609375
vt 0.3203125 0.625
vt 0.4453125 0.625
vt 0.375 0.4453125
vt 0.375 0.3203125
vt 0.625 0.609375
vt 0.625 0.625
vt 0.140625 0.625
vt 0.140625 0.6328125
vt 0.390625 0.8203125
vt 0.390625 0.9453125
vt 0.390625 0.4453125
vt 0.390625 0.3203125
vt 0.3203125 0.6328125
vt 0.4453125 0.6328125
vt 0.609375 0.625
vt 0.609375 0.6328125
vt 0.40625 0.8203125
vt 0.40625 0.9453125
vt 0.15625 0.625
vt 0.15625 0.640625
vt 0.8203125 0.6328125
vt 0.8203125 0.625
vt 0.9453125 0.6328125
vt 0.9453125 0.625
vt 0.3203125 0.640625
vt 0.4453125 0.640625
vt 0.40625 0.4453125
vt 0.40625 0.3203125
vt 0.59375 0.625
vt 0.59375 0.640625
vt 0.171875 0.640625
vt 0.171875 0.6484375
vt 0.421875 0.8203125
vt 0.421875 0.9453125
vt 0.421875 0.4453125
vt 0.421875 0.3203125
vt 0.3203125 0.6484375
vt 0.4453125 0.6484375
vt 0.578125 0.640625
vt 0.578125 0.6484375
vt 0.4375 0.8203125
vt 0.4375 0.9453125
vt 0.1875 0.640625
vt 0.1875 0.65625
vt 0.8203125 0.6484375
vt 0.8203125 0.640625
vt 0.9453125 0.6484375
vt 0.9453125 0.640625
vt 0.3203125 0.65625
vt 0.4453125 0.65625
vt 0.4375 0.4453125
vt 0.4375 0.3203125
vt 0.5625 0.640625
vt 0.5625 0.65625
vt 0.203125 0.65625
vt 0.203125 0.6640625
vt 0.453125 0.8203125
vt 0.453125 0.9453125
vt 0.453125 0.4453125
vt 0.453125 0.3203125
vt 0.3203125 0.6640625
vt 0.4453125 0.6640625
vt 0.546875 0.65625
vt 0.546875 0.6640625
vt 0.46875 0.8203125
vt 0.46875 0.9453125
vt 0.21875 0.65625
vt 0.21875 0.671875
vt 0.8203125 0.6640625
vt 0.8203125 0.65625
vt 0.9453125 0.6640625
vt 0.9453125 0.65625
vt 0.3203125 0.671875
vt 0.4453125 0.671875
vt 0.46875 0.4453125
vt 0.46875 0.3203125
vt 0.53125 0.65625
vt 0.53125 0.671875
vt 0.234375 0.671875
vt 0.234375 0.6796875
vt 0.484375 0.8203125
vt 0.484375 0.9453125
vt 0.484375 0.4453125
vt 0.484375 0.3203125
vt 0.3203125 0.6796875
vt 0.4453125 0.6796875
vt 0.515625 0.671875
vt 0.515625 0.6796875
vt 0.5 0.8203125
vt 0.5 0.9453125
vt 0.25 0.671875
vt 0.25 0.6875
vt 0.8203125 0.6796875
vt 0.8203125 0.671875
vt 0.9453125 0.6796875
vt 0.9453125 0.671875
vt 0.3203125 0.6875
vt 0.4453125 0.6875
vt 0.5 0.4453125
vt 0.5 0.3203125
vt 0.5 0.671875
vt 0.5 0.6875
vt 0.25 0.5625
vt 0.21875 0.5625
vt 0.53125 0.5625
vt 0.5 0.5625
vt 0.1875 0.5625
vt 0.5625 0.5625
vt 0.15625 0.5625
vt 0.59375 0.5625
vt 0.125 0.5625
vt 0.625 0.5625
vt 0.09375 0.5625
vt 0.65625 0.5625
vt 0.0625 0.5625
vt 0.6875 0.5625

usemtl slope

f 3/3/1 2/2/1 1/1/1
f 3/6/2 4/5/2 2/4/2
f 4/5/2 3/6/2 5/7/2
f 6/10/3 2/9/3 4/8/3
f 2/9/3 6/10/3 1/11/3
f 6/14/4 3/13/4 1/12/4
f 3/13/4 6/14/4 5/15/4
f 5/18/5 6/17/5 4/16/5
f 7/19/6 5/7/2 3/6/2
f 5/7/2 7/19/6 8/20/6
f 7/22/1 1/1/1 9/21/1
f 1/1/1 7/22/1 3/3/1
f 5/25/7 1/24/7 3/23/7
f 1/24/7 5/25/7 6/26/7
f 10/14/4 7/27/4 9/12/4
f 7/27/4 10/14/4 8/28/4
f 10/29/3 1/11/3 6/10/3
f 1/11/3 10/29/3 9/30/3
f 6/17/5 8/32/5 10/31/5
f 8/32/5 6/17/5 5/18/5
f 12/34/1 7/22/1 11/33/1
f 12/35/2 8/20/6 7/19/6
f 8/20/6 12/35/2 13/36/2
f 14/37/3 7/30/3 8/29/3
f 7/30/3 14/37/3 11/38/3
f 14/28/4 12/39/4 11/27/4
f 12/39/4 14/28/4 13/40/4
f 13/42/5 14/41/5 8/32/5
f 15/43/6 13/36/2 12/35/2
f 13/36/2 15/43/6 16/44/6
f 15/46/1 11/33/1 17/45/1
f 11/33/1 15/46/1 12/34/1
f 13/49/7 11/48/7 12/47/7
f 11/48/7 13/49/7 14/50/7
f 18/28/4 15/51/4 17/27/4
f 15/51/4 18/28/4 16/52/4
f 18/53/3 11/38/3 14/37/3
f 11/38/3 18/53/3 17/54/3
f 14/41/5 16/56/5 18/55/5
f 16/56/5 14/41/5 13/42/5
f 20/58/1 15/46/1 19/57/1
f 20/59/2 16/44/6 15/43/6
f 16/44/6 20/59/2 21/60/2
f 22/61/3 15/54/3 16/53/3
f 15/54/3 22/61/3 19/62/3
f 22/52/4 20/63/4 19/51/4
f 20/63/4 22/52/4 21/64/4
f 21/66/5 22/65/5 16/56/5
f 23/67/6 21/60/2 20/59/2
f 21/60/2 23/67/6 24/68/6
f 23/70/1 19/57/1 25/69/1
f 19/57/1 23/70/1 20/58/1
f 21/73/7 19/72/7 20/71/7
f 19/72/7 21/73/7 22/74/7
f 26/52/4 23/75/4 25/51/4
f 23/75/4 26/52/4 24/76/4
f 26/77/3 19/62/3 22/61/3
f 19/62/3 26/77/3 25/78/3
f 22/65/5 24/80/5 26/79/5
f 24/80/5 22/65/5 21/66/5
f 28/82/1 23/70/1 27/81/1
f 28/83/2 24/68/6 23/67/6
f 24/68/6 28/83/2 29/84/2
f 30/85/3 23/78/3 24/77/3
f 23/78/3 30/85/3 27/86/3
f 30/76/4 28/87/4 27/75/4
f 28/87/4 30/76/4 29/88/4
f 29/90/5 30/89/5 24/80/5
f 31/91/6 29/84/2 28/83/2
f 29/84/2 31/91/6 32/92/6
f 31/94/1 27/81/1 33/93/1
f 27/81/1 31/94/1 28/82/1
f 36/97/7 35/96/7 34/95/7
f 35/96/7 36/97/7 37/98/7
f 38/76/4 31/99/4 33/75/4
f 31/99/4 38/76/4 32/100/4
f 38/101/3 27/86/3 30/85/3
f 27/86/3 38/101/3 33/102/3
f 30/89/5 32/104/5 38/103/5
f 32/104/5 30/89/5 29/90/5
f 40/106/1 31/94/1 39/105/1
f 40/107/2 32/92/6 31/91/6
f 32/92/6 40/107/2 41/108/2
f 44/109/3 43/102/3 42/101/3
f 43/102/3 44/109/3 39/110/3
f 44/100/4 40/111/4 39/99/4
f 40/111/4 44/100/4 41/112/4
f 41/114/5 44/113/5 32/104/5
f 45/115/6 41/108/2 40/107/2
f 41/108/2 45/115/6 46/116/6
f 45/118/1 39/105/1 47/117/1
f 39/105/1 45/118/1 40/106/1
f 50/121/7 49/120/7 48/119/7
f 49/120/7 50/121/7 51/122/7
f 52/100/4 45/123/4 47/99/4
f 45/123/4 52/100/4 46/124/4
f 52/125/3 39/110/3 44/109/3
f 39/110/3 52/125/3 47/126/3
f 44/113/5 46/128/5 52/127/5
f 46/128/5 44/113/5 41/114/5
f 54/130/1 45/118/1 53/129/1
f 54/131/2 46/116/6 45/115/6
f 46/116/6 54/131/2 55/132/2
f 58/133/3 57/126/3 56/125/3
f 57/126/3 58/133/3 53/134/3
f 58/124/4 54/135/4 53/123/4
f 54/135/4 58/124/4 55/136/4
f 55/138/5 58/137/5 46/128/5
f 59/139/6 55/132/2 54/131/2
f 55/132/2 59/139/6 60/140/6
f 59/142/1 53/129/1 61/141/1
f 53/129/1 59/142/1 54/130/1
f 55/145/7 62/144/7 54/143/7
f 62/144/7 55/145/7 63/146/7
f 64/124/4 59/147/4 61/123/4
f 59/147/4 64/124/4 60/148/4
f 64/149/3 53/134/3 58/133/3
f 53/134/3 64/149/3 61/150/3
f 58/137/5 60/152/5 64/151/5
f 60/152/5 58/137/5 55/138/5
f 66/154/1 59/142/1 65/153/1
f 66/155/2 60/140/6 59/139/6
f 60/140/6 66/155/2 67/156/2
f 68/157/3 59/150/3 60/149/3
f 59/150/3 68/157/3 65/158/3
f 68/148/4 66/159/4 65/147/4
f 66/159/4 68/148/4 67/160/4
f 67/162/5 68/161/5 60/152/5
f 69/163/6 67/156/2 66/155/2
f 67/156/2 69/163/6 70/164/6
f 69/166/1 65/153/1 71/165/1
f 65/153/1 69/166/1 66/154/1
f 67/169/7 65/168/7 66/167/7
f 65/168/7 67/169/7 68/170/7
f 72/148/4 69/171/4 71/147/4
f 69/171/4 72/148/4 70/172/4
f 72/173/3 65/158/3 68/157/3
f 65/158/3 72/173/3 71/174/3
f 68/161/5 70/176/5 72/175/5
f 70/176/5 68/161/5 67/162/5
f 74/178/1 69/166/1 73/177/1
f 74/179/2 70/164/6 69/163/6
f 70/164/6 74/179/2 75/180/2
f 76/181/3 69/174/3 70/173/3
f 69/174/3 76/181/3 73/182/3
f 76/172/4 74/183/4 73/171/4
f 74/183/4 76/172/4 75/184/4
f 75/186/5 76/185/5 70/176/5
f 77/187/6 75/180/2 74/179/2
f 75/180/2 77/187/6 78/188/6
f 77/190/1 73/177/1 79/189/1
f 73/177/1 77/190/1 74/178/1
f 75/193/7 73/192/7 74/191/7
f 73/192/7 75/193/7 76/194/7
f 80/172/4 77/195/4 79/171/4
f 77/195/4 80/172/4 78/196/4
f 80/197/3 73/182/3 76/181/3
f 73/182/3 80/197/3 79/198/3
f 76/185/5 78/200/5 80/199/5
f 78/200/5 76/185/5 75/186/5
f 70/194/7 81/24/7 69/192/7
f 81/24/7 70/194/7 82/26/7
f 79/187/8 70/164/8 69/163/8
f 70/164/8 79/187/8 80/188/8
f 83/197/3 81/174/3 82/173/3
f 81/174/3 83/197/3 84/198/3
f 83/14/4 79/171/4 84/12/4
f 79/171/4 83/14/4 80/172/4
f 79/189/1 81/202/1 84/201/1
f 81/202/1 79/189/1 69/166/1
f 70/176/5 83/204/5 82/203/5
f 83/204/5 70/176/5 80/199/5
f 60/170/7 85/24/7 59/168/7
f 85/24/7 60/170/7 86/26/7
f 71/163/8 60/140/8 59/139/8
f 60/140/8 71/163/8 72/164/8
f 82/173/3 85/150/3 86/149/3
f 85/150/3 82/173/3 81/174/3
f 82/14/4 71/147/4 81/12/4
f 71/147/4 82/14/4 72/148/4
f 71/165/1 85/205/1 81/202/1
f 85/205/1 71/165/1 59/142/1
f 60/152/5 82/203/5 86/206/5
f 82/203/5 60/152/5 72/175/5
f 56/146/7 87/24/7 57/144/7
f 87/24/7 56/146/7 88/26/7
f 89/139/8 56/116/8 57/115/8
f 56/116/8 89/139/8 90/140/8
f 86/149/3 87/126/3 88/125/3
f 87/126/3 86/149/3 85/150/3
f 86/14/4 61/123/4 85/12/4
f 61/123/4 86/14/4 64/124/4
f 61/141/1 87/207/1 85/205/1
f 87/207/1 61/141/1 45/118/1
f 46/128/5 86/206/5 88/208/5
f 86/206/5 46/128/5 64/151/5
f 93/122/7 92/24/7 91/120/7
f 92/24/7 93/122/7 94/26/7
f 95/115/8 93/92/8 91/91/8
f 93/92/8 95/115/8 96/116/8
f 88/125/3 92/102/3 94/101/3
f 92/102/3 88/125/3 87/126/3
f 88/14/4 47/99/4 87/12/4
f 47/99/4 88/14/4 52/100/4
f 47/117/1 92/209/1 87/207/1
f 92/209/1 47/117/1 31/94/1
f 32/104/5 88/208/5 94/210/5
f 88/208/5 32/104/5 52/127/5
f 24/98/7 97/24/7 23/96/7
f 97/24/7 24/98/7 98/26/7
f 33/91/8 24/68/8 23/67/8
f 24/68/8 33/91/8 38/92/8
f 94/101/3 97/78/3 98/77/3
f 97/78/3 94/101/3 92/102/3
f 94/14/4 33/75/4 92/12/4
f 33/75/4 94/14/4 38/76/4
f 33/93/1 97/211/1 92/209/1
f 97/211/1 33/93/1 23/70/1
f 24/80/5 94/210/5 98/212/5
f 94/210/5 24/80/5 38/103/5
f 16/74/7 99/24/7 15/72/7
f 99/24/7 16/74/7 100/26/7
f 25/67/8 16/44/8 15/43/8
f 16/44/8 25/67/8 26/68/8
f 98/77/3 99/54/3 100/53/3
f 99/54/3 98/77/3 97/78/3
f 98/14/4 25/51/4 97/12/4
f 25/51/4 98/14/4 26/52/4
f 25/69/1 99/213/1 97/211/1
f 99/213/1 25/69/1 15/46/1
f 16/56/5 98/212/5 100/214/5
f 98/212/5 16/56/5 26/79/5
f 8/50/7 9/24/7 7/48/7
f 9/24/7 8/50/7 10/26/7
f 17/43/8 8/20/8 7/19/8
f 8/20/8 17/43/8 18/44/8
f 100/53/3 9/30/3 10/29/3
f 9/30/3 100/53/3 99/54/3
f 100/14/4 17/27/4 99/12/4
f 17/27/4 100/14/4 18/28/4
f 17/45/1 9/21/1 99/213/1
f 9/21/1 17/45/1 7/22/1
f 8/32/5 100/214/5 10/31/5
f 100/214/5 8/32/5 18/55/5

