# Created by Kenney (www.kenney.nl)

mtllib single.mtl

v 5 2 2
v 4 2 2
v 4.965926 2.258819 2
v 4 3 2
v 4.866025 2.5 2
v 4.707107 2.707107 2
v 4.5 2.866025 2
v 4.258819 2.965926 2
v 4.707107 2.707107 -2
v 4.5 2.866025 -2
v 4.965926 2.258819 -2
v 5 2 -2
v 4.258819 2.965926 -2
v 4 3 -2
v 4 2 -2
v 4.866025 2.5 -2
v 4.732051 -2 2
v 4.732051 -2 -2
v 4 -2 2
v 4 -2 -2
v 4.847759 -1.765367 -2
v 4 -1 -2
v 4.931851 -1.517638 -2
v 4.98289 -1.261052 -2
v 5 -1 -2
v 5 -1 2
v 4 -1 2
v 4.98289 -1.261052 2
v 4.931851 -1.517638 2
v 4.847759 -1.765367 2
v 4.217523 -2.586707 2
v 4.217523 -2.586707 -2
v 4 -2.732051 2
v 4 -2.732051 -2
v 4.414214 -2.414214 2
v 4.414214 -2.414214 -2
v 4.586707 -2.217523 -2
v 4.586707 -2.217523 2
v 3.261052 -2.98289 2
v 3.261052 -2.98289 -2
v 3 -3 2
v 3 -3 -2
v 3.765367 -2.847759 2
v 3.765367 -2.847759 -2
v 3.517638 -2.931852 2
v 3.517638 -2.931852 -2
v 3 -2 -2
v 3 -2 2
v -3.765367 -2.847759 2
v -3.765367 -2.847759 -2
v -4 -2.732051 2
v -4 -2.732051 -2
v -3 -2 -2
v -3 -2 2
v -4 -2 -2
v -4 -2 2
v -3.517638 -2.931852 2
v -3.517638 -2.931852 -2
v -3 -3 -2
v -3.261052 -2.98289 -2
v -3 -3 2
v -3.261052 -2.98289 2
v -4.707107 2.707107 -2
v -4.866025 2.5 -2
v -4 3 -2
v -4.5 2.866025 -2
v -4.258819 2.965926 -2
v -4.965926 2.258819 -2
v -5 2 -2
v -4 2 -2
v -4 3 2
v -4.258819 2.965926 2
v -4 2 2
v -5 2 2
v -4.5 2.866025 2
v -4.707107 2.707107 2
v -4.965926 2.258819 2
v -4.866025 2.5 2
v -5 -1 2
v -4.98289 -1.261052 2
v -5 -1 -2
v -4.732051 -2 2
v -4.732051 -2 -2
v -4 -1 -2
v -4 -1 2
v -4.931851 -1.517638 -2
v -4.98289 -1.261052 -2
v -4.931851 -1.517638 2
v -4.847759 -1.765367 -2
v -4.847759 -1.765367 2
v -4.586707 -2.217523 2
v -4.414214 -2.414214 2
v -4.586707 -2.217523 -2
v -4.217523 -2.586707 2
v -4.217523 -2.586707 -2
v -4.414214 -2.414214 -2
v 4 2 -1.5
v 4 -1 -1.5
v 3 2 -1.5
v 3 2 2
v 3 -1 2
v 3 -1 -1.5
v 3 1 -1.5
v 3 1 2
v 1 2 -1.5
v 1 2 2
v 1 1 2
v 1 1 -1.5
v 1 2 -2
v 1 -3 -2
v 1 -3 2
v -1 2 -2
v -1 2 2
v -1 -3 2
v -1 -3 -2
v -1 2 -1.5
v -1 -1 -1.5
v -1 -1 2
v -2 2 -1.5
v -2 2 2
v -2 -1 2
v -2 -1 -1.5
v -2 1 -1.5
v -2 1 2
v -4 2 -1.5
v -4 1 2
v -4 1 -1.5
v 3 0 -1.5
v 3 0 2
v 2 1 -1.5
v 2 1 2
v 2 0 2
v 2 0 -1.5
v 2 -1 -1.5
v 2 -1 2
v 1 -1 2
v 1 -1 -1.5
v -2 0 -1.5
v -2 0 2
v -3 1 -1.5
v -3 1 2
v -3 0 2
v -3 0 -1.5
v -3 -1 -1.5
v -3 -1 2
v -4 -1 -1.5
v 1 -1 -2
v 1 -2 2
v 1 -2 -2
v -1 -1 -2
v -3 -1 -2

vn 0 0 1
vn 0.7071068 0.7071068 0
vn 0.5 0.8660254 0
vn 0.9659259 0.2588191 0
vn 0.9914449 0.1305262 0
vn 0.2588191 0.9659258 0
vn 0.1305262 0.9914449 0
vn 0 0 -1
vn 0.8660254 0.5 0
vn 0 -1 0
vn -1 0 0
vn 0 1 0
vn 0.9978589 -0.06540313 0
vn 0.9914449 -0.1305262 0
vn 0.9659259 -0.2588191 0
vn 0.9238796 -0.3826835 0
vn 0.8968728 -0.4422887 0
vn 0.6087614 -0.7933533 0
vn 0.5555702 -0.8314696 0
vn 0.7071068 -0.7071068 0
vn 0.7933533 -0.6087614 0
vn 0.8314696 -0.5555702 0
vn 0.1305262 -0.9914449 0
vn 0.06540313 -0.9978589 0
vn 0.3826835 -0.9238796 0
vn 0.2588191 -0.9659259 0
vn 0.4422887 -0.8968728 0
vn 1 0 0
vn -0.3826835 -0.9238796 0
vn -0.4422887 -0.8968728 0
vn -0.2588191 -0.9659259 0
vn -0.06540313 -0.9978589 0
vn -0.1305262 -0.9914449 0
vn -0.1305262 0.9914449 0
vn -0.2588191 0.9659259 0
vn -0.5 0.8660254 0
vn -0.7071068 0.7071068 0
vn -0.9914449 0.1305262 0
vn -0.9659259 0.2588191 0
vn -0.8660254 0.5 0
vn -0.9978589 -0.06540313 0
vn -0.9914449 -0.1305262 0
vn -0.9659259 -0.2588191 0
vn -0.8968728 -0.4422887 0
vn -0.9238796 -0.3826835 0
vn -0.7933533 -0.6087614 0
vn -0.7071068 -0.7071068 0
vn -0.6087614 -0.7933533 0
vn -0.8314696 -0.5555702 0
vn -0.5555702 -0.8314696 0

vt 0.8125 0.1875
vt 0.9375 0.1875

usemtl single

f 3/1/1 2/1/1 1/1/1
f 2/1/1 3/1/1 4/1/1
f 4/1/1 3/1/1 5/1/1
f 4/1/1 5/1/1 6/1/1
f 4/1/1 6/1/1 7/1/1
f 4/1/1 7/1/1 8/1/1
f 10/1/3 6/1/2 9/1/2
f 6/1/2 10/1/3 7/1/3
f 3/1/4 12/1/5 11/1/4
f 12/1/5 3/1/4 1/1/5
f 14/1/7 8/1/6 13/1/6
f 8/1/6 14/1/7 4/1/7
f 15/1/8 11/1/8 12/1/8
f 11/1/8 15/1/8 14/1/8
f 11/1/8 14/1/8 16/1/8
f 16/1/8 14/1/8 9/1/8
f 9/1/8 14/1/8 10/1/8
f 10/1/8 14/1/8 13/1/8
f 6/1/2 16/1/9 9/1/2
f 16/1/9 6/1/2 5/1/9
f 2/1/10 12/1/10 1/1/10
f 12/1/10 2/1/10 15/1/10
f 2/1/11 14/1/11 15/1/11
f 14/1/11 2/1/11 4/1/11
f 5/1/9 11/1/4 16/1/9
f 11/1/4 5/1/9 3/1/4
f 13/1/6 7/1/3 10/1/3
f 7/1/3 13/1/6 8/1/6
f 19/1/10 18/1/10 17/1/10
f 18/1/10 19/1/10 20/1/10
f 20/1/8 21/1/8 18/1/8
f 21/1/8 20/1/8 22/1/8
f 21/1/8 22/1/8 23/1/8
f 23/1/8 22/1/8 24/1/8
f 24/1/8 22/1/8 25/1/8
f 22/1/12 26/1/12 25/1/12
f 26/1/12 22/1/12 27/1/12
f 19/1/11 22/1/11 20/1/11
f 22/1/11 19/1/11 27/1/11
f 26/1/13 24/1/14 25/1/13
f 24/1/14 26/1/13 28/1/14
f 29/1/15 21/1/16 23/1/15
f 18/1/17 30/1/16 17/1/17
f 28/1/14 23/1/15 24/1/14
f 23/1/15 28/1/14 29/1/15
f 21/1/16 29/1/15 30/1/16
f 30/1/16 18/1/17 21/1/16
f 30/1/1 19/1/1 17/1/1
f 19/1/1 30/1/1 27/1/1
f 27/1/1 30/1/1 29/1/1
f 27/1/1 29/1/1 28/1/1
f 27/1/1 28/1/1 26/1/1
f 33/1/19 32/1/18 31/1/18
f 32/1/18 33/1/19 34/1/19
f 31/1/18 36/1/20 35/1/20
f 36/1/20 31/1/18 32/1/18
f 20/1/12 17/1/12 18/1/12
f 17/1/12 20/1/12 19/1/12
f 38/1/21 36/1/20 37/1/21
f 36/1/20 38/1/21 35/1/20
f 20/1/8 32/1/8 34/1/8
f 32/1/8 20/1/8 36/1/8
f 36/1/8 20/1/8 37/1/8
f 37/1/8 20/1/8 18/1/8
f 33/1/11 20/1/11 34/1/11
f 20/1/11 33/1/11 19/1/11
f 17/1/22 37/1/21 18/1/22
f 37/1/21 17/1/22 38/1/21
f 31/1/1 19/1/1 33/1/1
f 19/1/1 31/1/1 35/1/1
f 19/1/1 35/1/1 38/1/1
f 19/1/1 38/1/1 17/1/1
f 41/1/24 40/1/23 39/1/23
f 40/1/23 41/1/24 42/1/24
f 45/1/26 44/1/25 43/1/25
f 43/1/25 34/1/27 33/1/27
f 44/1/25 45/1/26 46/1/26
f 34/1/27 43/1/25 44/1/25
f 47/1/12 19/1/12 20/1/12
f 19/1/12 47/1/12 48/1/12
f 47/1/8 40/1/8 42/1/8
f 40/1/8 47/1/8 46/1/8
f 46/1/8 47/1/8 44/1/8
f 44/1/8 47/1/8 34/1/8
f 34/1/8 47/1/8 20/1/8
f 39/1/23 46/1/26 45/1/26
f 46/1/26 39/1/23 40/1/23
f 41/1/11 47/1/11 42/1/11
f 47/1/11 41/1/11 48/1/11
f 19/1/28 34/1/28 20/1/28
f 34/1/28 19/1/28 33/1/28
f 39/1/1 48/1/1 41/1/1
f 48/1/1 39/1/1 45/1/1
f 48/1/1 45/1/1 43/1/1
f 48/1/1 43/1/1 33/1/1
f 48/1/1 33/1/1 19/1/1
f 51/1/30 50/1/29 49/1/29
f 50/1/29 51/1/30 52/1/30
f 55/1/12 54/1/12 53/1/12
f 54/1/12 55/1/12 56/1/12
f 49/1/29 58/1/31 57/1/31
f 58/1/31 49/1/29 50/1/29
f 60/1/8 53/1/8 59/1/8
f 53/1/8 60/1/8 58/1/8
f 53/1/8 58/1/8 50/1/8
f 53/1/8 50/1/8 52/1/8
f 53/1/8 52/1/8 55/1/8
f 51/1/11 55/1/11 52/1/11
f 55/1/11 51/1/11 56/1/11
f 62/1/33 59/1/32 61/1/32
f 59/1/32 62/1/33 60/1/33
f 57/1/31 60/1/33 62/1/33
f 60/1/33 57/1/31 58/1/31
f 54/1/28 59/1/28 53/1/28
f 59/1/28 54/1/28 61/1/28
f 54/1/1 62/1/1 61/1/1
f 62/1/1 54/1/1 57/1/1
f 57/1/1 54/1/1 49/1/1
f 49/1/1 54/1/1 51/1/1
f 51/1/1 54/1/1 56/1/1
f 65/1/8 64/1/8 63/1/8
f 65/1/8 63/1/8 66/1/8
f 65/1/8 66/1/8 67/1/8
f 65/1/8 68/1/8 64/1/8
f 68/1/8 70/1/8 69/1/8
f 70/1/8 68/1/8 65/1/8
f 67/1/35 71/1/34 65/1/34
f 71/1/34 67/1/35 72/1/35
f 74/1/10 70/1/10 73/1/10
f 70/1/10 74/1/10 69/1/10
f 63/1/37 75/1/36 66/1/36
f 75/1/36 63/1/37 76/1/37
f 74/1/38 68/1/39 69/1/38
f 68/1/39 74/1/38 77/1/39
f 77/1/39 64/1/40 68/1/39
f 64/1/40 77/1/39 78/1/40
f 78/1/40 63/1/37 64/1/40
f 63/1/37 78/1/40 76/1/37
f 66/1/36 72/1/35 67/1/35
f 72/1/35 66/1/36 75/1/36
f 71/1/28 70/1/28 65/1/28
f 70/1/28 71/1/28 73/1/28
f 71/1/1 74/1/1 73/1/1
f 74/1/1 71/1/1 77/1/1
f 77/1/1 71/1/1 78/1/1
f 78/1/1 71/1/1 76/1/1
f 76/1/1 71/1/1 75/1/1
f 75/1/1 71/1/1 72/1/1
f 81/1/41 80/1/42 79/1/41
f 82/1/10 55/1/10 56/1/10
f 55/1/10 82/1/10 83/1/10
f 85/1/28 55/1/28 84/1/28
f 55/1/28 85/1/28 56/1/28
f 81/1/12 85/1/12 84/1/12
f 85/1/12 81/1/12 79/1/12
f 88/1/43 87/1/42 86/1/43
f 82/1/44 89/1/45 83/1/44
f 89/1/45 82/1/44 90/1/45
f 90/1/45 86/1/43 89/1/45
f 86/1/43 90/1/45 88/1/43
f 89/1/8 55/1/8 83/1/8
f 55/1/8 89/1/8 84/1/8
f 84/1/8 89/1/8 86/1/8
f 84/1/8 86/1/8 87/1/8
f 84/1/8 87/1/8 81/1/8
f 80/1/42 81/1/41 87/1/42
f 87/1/42 88/1/43 80/1/42
f 56/1/1 90/1/1 82/1/1
f 90/1/1 56/1/1 85/1/1
f 90/1/1 85/1/1 88/1/1
f 88/1/1 85/1/1 80/1/1
f 80/1/1 85/1/1 79/1/1
f 93/1/46 92/1/47 91/1/46
f 92/1/47 95/1/48 94/1/48
f 92/1/47 93/1/46 96/1/47
f 95/1/48 92/1/47 96/1/47
f 83/1/12 56/1/12 55/1/12
f 56/1/12 83/1/12 82/1/12
f 95/1/8 55/1/8 52/1/8
f 55/1/8 95/1/8 96/1/8
f 55/1/8 96/1/8 93/1/8
f 55/1/8 93/1/8 83/1/8
f 56/1/28 52/1/28 55/1/28
f 52/1/28 56/1/28 51/1/28
f 91/1/46 83/1/49 93/1/46
f 83/1/49 91/1/46 82/1/49
f 94/1/48 52/1/50 51/1/50
f 52/1/50 94/1/48 95/1/48
f 56/1/1 94/1/1 51/1/1
f 94/1/1 56/1/1 92/1/1
f 92/1/1 56/1/1 91/1/1
f 91/1/1 56/1/1 82/1/1
f 4/1/28 15/1/28 14/1/28
f 15/1/28 4/1/28 2/1/28
f 65/1/12 4/1/12 14/1/12
f 4/1/12 65/1/12 71/1/12
f 73/1/10 15/1/10 2/1/10
f 15/1/10 73/1/10 70/1/10
f 73/1/11 65/1/11 70/1/11
f 65/1/11 73/1/11 71/1/11
f 65/1/8 15/1/8 70/1/8
f 15/1/8 65/1/8 14/1/8
f 4/1/1 73/1/1 2/1/1
f 73/1/1 4/1/1 71/1/1
f 1/1/28 25/1/28 12/1/28
f 25/1/28 1/1/28 26/1/28
f 15/1/12 1/1/12 12/1/12
f 1/1/12 15/1/12 2/1/12
f 27/1/10 25/1/10 26/1/10
f 25/1/10 27/1/10 22/1/10
f 27/1/11 15/1/11 22/1/11
f 15/1/11 27/1/11 2/1/11
f 15/1/8 25/1/8 22/1/8
f 25/1/8 15/1/8 12/1/8
f 1/1/1 27/1/1 26/1/1
f 27/1/1 1/1/1 2/1/1
f 2/2/28 98/2/28 97/2/28
f 98/2/28 2/2/28 27/2/28
f 99/2/12 2/2/12 97/2/12
f 2/2/12 99/2/12 100/2/12
f 101/2/10 98/2/10 27/2/10
f 98/2/10 101/2/10 102/2/10
f 101/2/11 99/2/11 102/2/11
f 99/2/11 101/2/11 100/2/11
f 99/2/8 98/2/8 102/2/8
f 98/2/8 99/2/8 97/2/8
f 2/2/1 101/2/1 27/2/1
f 101/2/1 2/2/1 100/2/1
f 100/2/28 103/2/28 99/2/28
f 103/2/28 100/2/28 104/2/28
f 105/2/12 100/2/12 99/2/12
f 100/2/12 105/2/12 106/2/12
f 107/2/10 103/2/10 104/2/10
f 103/2/10 107/2/10 108/2/10
f 107/2/11 105/2/11 108/2/11
f 105/2/11 107/2/11 106/2/11
f 105/2/8 103/2/8 108/2/8
f 103/2/8 105/2/8 99/2/8
f 100/2/1 107/2/1 104/2/1
f 107/2/1 100/2/1 106/2/1
f 106/1/28 110/1/28 109/1/28
f 110/1/28 106/1/28 111/1/28
f 112/1/12 106/1/12 109/1/12
f 106/1/12 112/1/12 113/1/12
f 114/1/10 110/1/10 111/1/10
f 110/1/10 114/1/10 115/1/10
f 114/1/11 112/1/11 115/1/11
f 112/1/11 114/1/11 113/1/11
f 112/1/8 110/1/8 115/1/8
f 110/1/8 112/1/8 109/1/8
f 106/1/1 114/1/1 111/1/1
f 114/1/1 106/1/1 113/1/1
f 113/2/28 117/2/28 116/2/28
f 117/2/28 113/2/28 118/2/28
f 119/2/12 113/2/12 116/2/12
f 113/2/12 119/2/12 120/2/12
f 121/2/10 117/2/10 118/2/10
f 117/2/10 121/2/10 122/2/10
f 121/2/11 119/2/11 122/2/11
f 119/2/11 121/2/11 120/2/11
f 119/2/8 117/2/8 122/2/8
f 117/2/8 119/2/8 116/2/8
f 113/2/1 121/2/1 118/2/1
f 121/2/1 113/2/1 120/2/1
f 120/2/28 123/2/28 119/2/28
f 123/2/28 120/2/28 124/2/28
f 125/2/12 120/2/12 119/2/12
f 120/2/12 125/2/12 73/2/12
f 126/2/10 123/2/10 124/2/10
f 123/2/10 126/2/10 127/2/10
f 126/2/11 125/2/11 127/2/11
f 125/2/11 126/2/11 73/2/11
f 125/2/8 123/2/8 127/2/8
f 123/2/8 125/2/8 119/2/8
f 120/2/1 126/2/1 124/2/1
f 126/2/1 120/2/1 73/2/1
f 73/1/28 84/1/28 70/1/28
f 84/1/28 73/1/28 85/1/28
f 69/1/12 73/1/12 70/1/12
f 73/1/12 69/1/12 74/1/12
f 79/1/10 84/1/10 85/1/10
f 84/1/10 79/1/10 81/1/10
f 79/1/11 69/1/11 81/1/11
f 69/1/11 79/1/11 74/1/11
f 69/1/8 84/1/8 81/1/8
f 84/1/8 69/1/8 70/1/8
f 73/1/1 79/1/1 85/1/1
f 79/1/1 73/1/1 74/1/1
f 104/1/28 128/1/28 103/1/28
f 128/1/28 104/1/28 129/1/28
f 130/1/12 104/1/12 103/1/12
f 104/1/12 130/1/12 131/1/12
f 132/1/10 128/1/10 129/1/10
f 128/1/10 132/1/10 133/1/10
f 132/1/11 130/1/11 133/1/11
f 130/1/11 132/1/11 131/1/11
f 130/1/8 128/1/8 133/1/8
f 128/1/8 130/1/8 103/1/8
f 104/1/1 132/1/1 129/1/1
f 132/1/1 104/1/1 131/1/1
f 131/2/28 134/2/28 130/2/28
f 134/2/28 131/2/28 135/2/28
f 108/2/12 131/2/12 130/2/12
f 131/2/12 108/2/12 107/2/12
f 136/2/10 134/2/10 135/2/10
f 134/2/10 136/2/10 137/2/10
f 136/2/11 108/2/11 137/2/11
f 108/2/11 136/2/11 107/2/11
f 108/2/8 134/2/8 137/2/8
f 134/2/8 108/2/8 130/2/8
f 131/2/1 136/2/1 135/2/1
f 136/2/1 131/2/1 107/2/1
f 124/1/28 138/1/28 123/1/28
f 138/1/28 124/1/28 139/1/28
f 140/1/12 124/1/12 123/1/12
f 124/1/12 140/1/12 141/1/12
f 142/1/10 138/1/10 139/1/10
f 138/1/10 142/1/10 143/1/10
f 142/1/11 140/1/11 143/1/11
f 140/1/11 142/1/11 141/1/11
f 140/1/8 138/1/8 143/1/8
f 138/1/8 140/1/8 123/1/8
f 124/1/1 142/1/1 139/1/1
f 142/1/1 124/1/1 141/1/1
f 141/2/28 144/2/28 140/2/28
f 144/2/28 141/2/28 145/2/28
f 127/2/12 141/2/12 140/2/12
f 141/2/12 127/2/12 126/2/12
f 85/2/10 144/2/10 145/2/10
f 144/2/10 85/2/10 146/2/10
f 85/2/11 127/2/11 146/2/11
f 127/2/11 85/2/11 126/2/11
f 127/2/8 144/2/8 146/2/8
f 144/2/8 127/2/8 140/2/8
f 141/2/1 85/2/1 145/2/1
f 85/2/1 141/2/1 126/2/1
f 129/2/28 102/2/28 128/2/28
f 102/2/28 129/2/28 101/2/28
f 133/2/12 129/2/12 128/2/12
f 129/2/12 133/2/12 132/2/12
f 135/2/10 102/2/10 101/2/10
f 102/2/10 135/2/10 134/2/10
f 135/2/11 133/2/11 134/2/11
f 133/2/11 135/2/11 132/2/11
f 133/2/8 102/2/8 134/2/8
f 102/2/8 133/2/8 128/2/8
f 129/2/1 135/2/1 101/2/1
f 135/2/1 129/2/1 132/2/1
f 139/2/28 122/2/28 138/2/28
f 122/2/28 139/2/28 121/2/28
f 143/2/12 139/2/12 138/2/12
f 139/2/12 143/2/12 142/2/12
f 145/2/10 122/2/10 121/2/10
f 122/2/10 145/2/10 144/2/10
f 145/2/11 143/2/11 144/2/11
f 143/2/11 145/2/11 142/2/11
f 143/2/8 122/2/8 144/2/8
f 122/2/8 143/2/8 138/2/8
f 139/2/1 145/2/1 121/2/1
f 145/2/1 139/2/1 142/2/1
f 27/1/28 20/1/28 22/1/28
f 20/1/28 27/1/28 19/1/28
f 147/1/12 27/1/12 22/1/12
f 27/1/12 147/1/12 136/1/12
f 148/1/10 20/1/10 19/1/10
f 20/1/10 148/1/10 149/1/10
f 148/1/11 147/1/11 149/1/11
f 147/1/11 148/1/11 136/1/11
f 147/1/8 20/1/8 149/1/8
f 20/1/8 147/1/8 22/1/8
f 27/1/1 148/1/1 19/1/1
f 148/1/1 27/1/1 136/1/1
f 118/1/28 115/1/28 150/1/28
f 115/1/28 118/1/28 114/1/28
f 151/1/12 118/1/12 150/1/12
f 118/1/12 151/1/12 145/1/12
f 61/1/10 115/1/10 114/1/10
f 115/1/10 61/1/10 59/1/10
f 61/1/11 151/1/11 59/1/11
f 151/1/11 61/1/11 145/1/11
f 151/1/8 115/1/8 59/1/8
f 115/1/8 151/1/8 150/1/8
f 118/1/1 61/1/1 114/1/1
f 61/1/1 118/1/1 145/1/1
f 145/1/28 53/1/28 151/1/28
f 53/1/28 145/1/28 54/1/28
f 84/1/12 145/1/12 151/1/12
f 145/1/12 84/1/12 85/1/12
f 56/1/10 53/1/10 54/1/10
f 53/1/10 56/1/10 55/1/10
f 56/1/11 84/1/11 55/1/11
f 84/1/11 56/1/11 85/1/11
f 84/1/8 53/1/8 55/1/8
f 53/1/8 84/1/8 151/1/8
f 145/1/1 56/1/1 54/1/1
f 56/1/1 145/1/1 85/1/1
f 48/1/28 42/1/28 47/1/28
f 42/1/28 48/1/28 41/1/28
f 149/1/12 48/1/12 47/1/12
f 48/1/12 149/1/12 148/1/12
f 111/1/10 42/1/10 41/1/10
f 42/1/10 111/1/10 110/1/10
f 111/1/11 149/1/11 110/1/11
f 149/1/11 111/1/11 148/1/11
f 149/1/8 42/1/8 110/1/8
f 42/1/8 149/1/8 47/1/8
f 48/1/1 111/1/1 41/1/1
f 111/1/1 48/1/1 148/1/1
f 100/2/28 103/2/28 99/2/28
f 103/2/28 100/2/28 104/2/28
f 105/2/12 100/2/12 99/2/12
f 100/2/12 105/2/12 106/2/12
f 107/2/10 103/2/10 104/2/10
f 103/2/10 107/2/10 108/2/10
f 107/2/11 105/2/11 108/2/11
f 105/2/11 107/2/11 106/2/11
f 105/2/8 103/2/8 108/2/8
f 103/2/8 105/2/8 99/2/8
f 100/2/1 107/2/1 104/2/1
f 107/2/1 100/2/1 106/2/1
f 120/2/28 123/2/28 119/2/28
f 123/2/28 120/2/28 124/2/28
f 125/2/12 120/2/12 119/2/12
f 120/2/12 125/2/12 73/2/12
f 126/2/10 123/2/10 124/2/10
f 123/2/10 126/2/10 127/2/10
f 126/2/11 125/2/11 127/2/11
f 125/2/11 126/2/11 73/2/11
f 125/2/8 123/2/8 127/2/8
f 123/2/8 125/2/8 119/2/8
f 120/2/1 126/2/1 124/2/1
f 126/2/1 120/2/1 73/2/1
f 145/1/28 53/1/28 151/1/28
f 53/1/28 145/1/28 54/1/28
f 84/1/12 145/1/12 151/1/12
f 145/1/12 84/1/12 85/1/12
f 56/1/10 53/1/10 54/1/10
f 53/1/10 56/1/10 55/1/10
f 56/1/11 84/1/11 55/1/11
f 84/1/11 56/1/11 85/1/11
f 84/1/8 53/1/8 55/1/8
f 53/1/8 84/1/8 151/1/8
f 145/1/1 56/1/1 54/1/1
f 56/1/1 145/1/1 85/1/1

